<svg class="hidden" viewBox="0 0 100 100" xmlns="http://www.w3.org/2000/svg" xmlns:xlink='http://www.w3.org/1999/xlink'>
  <symbol id="success" width="10" height="10" viewBox="0 0 100 100" fill="green">
    <polygon points="80,77 85,70 88,63 90,56 90.5,51 90.5,45 90,42 88,36 85,30 81,24 75,18 71,15 66,12 59,10 54,9 44,9 34,11 28,13 20,18 15,24 12,30 10,34 6.5,35 6,41 7,52  9,61 14,80 20,88 40,94 50,96 60,96 65,93 68,87 68,83 66,80 64,79 62,78 59,78 55,79 51,83 44,85 35,83 30,80 20,70 15,60 13,45 16,39 18,35 20,30 25,23 30,19 40,14 50,13 60,14 70,19 80,28 86,45 85,65 80,77"></polygon>
  </symbol>

  <symbol id="explode" width="10" height="10" viewBox="0 0 100 100" fill="teal">
    <path d="M 17.675066 67.95104 C 17.675066 67.95104 26.269928 80.15916 35.80776 85.31572 C 45.34559 90.47227 68.16207 89.19587 73.807765 84.11572 C 79.45346 79.03556 80.22435 74.51859 80.00777 71.115716 C 79.79118 67.712845 80.01525 67.425075 78.607765 63.115715 C 77.20028 58.806356 64.84671 53.0056 60.67507 59.951044 C 56.50343 66.89649 57.16881 71.544925 59.67507 72.95104 C 62.181335 74.35716 61.07229 73.58226 62.20776 74.115716 C 63.34324 74.649175 62.370414 75.29312 62.00776 76.51572 C 61.64511 77.73831 56.79428 79.41009 52.67507 79.95104 C 48.555865 80.49199 38.62948 82.21908 32.67507 78.95104 C 26.720656 75.683005 17.675066 67.95104 17.675066 67.95104 Z" />
    <path d="M 51.540824 10.002591 C 51.540824 10.002591 45.18379 9.934438 42.119817 10.497212 C 39.055845 11.059987 32.63697 14.241555 30.27476 15.364933 C 27.912552 16.48831 18.217493 27.162903 16.205468 30.43328 C 14.193444 33.703654 9.790525 47.38762 10.007754 49.86491 C 10.224982 52.3422 11.534996 61.12462 17.404335 65.39844 C 23.273673 69.67227 31.436973 67.38613 35.40776 64.315715 C 39.378544 61.2453 40.87667 58.62358 39.80776 52.715715 C 38.738847 46.807853 30.577045 44.7659 28.207758 45.115715 C 25.83847 45.46553 24.961478 45.577 24.961478 45.577 C 24.961478 45.577 23.46094 46.264026 23.21224 44.60738 C 22.963538 42.950736 23.086407 38.960656 24.077047 34.796565 C 25.067686 30.632475 31.513375 21.170393 34.64786 17.78898 C 37.782346 14.407568 43.869056 11.466832 43.869056 11.466832 Z" />
    <path d="M 85.72189 69.82755 C 85.72189 69.82755 89.36117 64.69756 90.72039 61.82661 C 92.0796 58.955654 93.38577 58.40404 93.52703 49.3317 C 93.66829 40.25936 89.33619 28.814687 87.91773 25.490824 C 86.49927 22.166961 79.06155 14.323031 76.89097 12.941566 C 74.7204 11.5601 68.012856 9.54775 59.92414 10.090821 C 51.83543 10.633893 45.901995 19.46386 48.717724 26.490824 C 51.53345 33.517788 59.681574 34.686373 59.681574 34.686373 C 59.681574 34.686373 64.664545 36.02566 68.11773 34.490825 C 71.57091 32.95599 71.82632 27.650383 71.82632 27.650383 C 71.82632 27.650383 71.43926 26.199765 73.11773 26.290824 C 74.7962 26.381883 79.43608 30.615166 81.16443 33.109302 C 82.89278 35.60344 90.45858 41.001163 90.31773 51.890825 C 90.17688 62.78049 85.72189 69.82755 85.72189 69.82755 Z" />
  </symbol>

  <symbol id="strife" width="10" height="10" viewBox="0 0 100 100" fill="red">
    <path d="M 41.20815 19.022556 L 32.4 23.4 L 20.2 31.4 L 12.4 43.2 L 10 57.398496 L 14.2 74.6 L 25.2 84.6 L 40.04367 89.8797 L 46.09898 89.3985 L 49.01019 84.22556 L 45.52 76.24 L 46.419565 71.92181 L 56.659565 64.24181 L 54.250364 73.5188 L 55.88064 81.218045 L 67.75837 90 L 76.60844 85.78947 L 86.15721 71.11278 L 89.8 56.6 L 80.8 44 L 68.2 34.6 L 55.8 24.8 L 63.2 35.4 L 79.4 49.4 L 84 58 L 78.82096 71.35338 L 69.38865 81.218045 L 66.710335 81.33835 L 63.56623 80.61654 L 59.024745 75.08271 L 59.13945 71.50677 L 62.28355 63.206016 L 62.4 60.8 L 57.699565 59.521806 L 50.988065 61.88271 L 45.16565 67.17594 L 40.975255 70.27068 L 41.20815 76.16541 L 40.88 82.16 L 29.8 80.8 L 19.2 71.8 L 14.89083 58.601504 L 15.6 48.6 L 19.4 40.8 L 27.2 33.6 L 32.24 30.16 L 46.68122 26.2406 L 54.01747 22.99248 L 55.76419 17.218045 C 55.76419 17.218045 54.71616 11.443609 54.71616 11.323308 C 54.71616 11.203008 49.359534 10 49.359534 10 L 45.749636 13.849624 Z"></path>
  </symbol>

  <symbol id="opportunity" width="10" height="10" viewBox="0 0 100 100" fill="rebeccapurple">
    <path d="M 49.60912 42.10959 L 47.00326 35.26656 L 48.02699 23.580777 L 55.100047 11.473883 L 60.96324 10 L 65.98883 13.895262 L 67.1987 21.369953 L 63.476035 26.63382 L 57.333644 26.528543 L 51.00512 32.10824 Z"></path>
    <path d="M 54.95114 45.945205 L 61.4658 37.945205 L 75.14658 34.438356 L 84.39739 34.547945 L 90 38.164384 L 89.34853 44.630137 L 84.2671 47.91781 L 79.96743 48.356164 L 76.188925 45.068493 L 75.92834 39.58904 L 66.93811 39.47945 L 62.50814 41.12329 Z"></path>
    <path d="M 51.824104 51.20548 L 62.37785 51.20548 L 78.27362 57.342466 L 85.96091 64.57534 L 88.56678 72.46575 L 85.96091 79.80822 L 79.96743 82.54795 L 73.19218 81.12329 L 72.01954 75.9726 L 74.49511 71.26027 L 77.75244 69.83562 L 74.88599 63.260274 L 65.37459 55.36986 Z"></path>
    <path d="M 50.260586 57.89041 L 57.557 66.43836 L 57.557 78.71233 L 51.9544 88.24658 L 46.35179 90 L 40.4886 88.57534 C 40.4886 88.57534 36.188925 83.64384 36.188925 83.53425 C 36.188925 83.42466 36.579805 77.83562 36.579805 77.83562 L 40.358306 74.87671 L 44.788274 72.90411 L 50.260586 74.547945 L 51.433225 75.9726 L 53.517915 71.80822 L 53.517915 66.21918 L 53.517915 63.58904 Z"></path>
    <path d="M 43.87622 51.534247 L 42.833876 60.739726 L 36.188925 67.09589 L 24.723127 72.46575 L 16.514658 71.47945 L 11.172638 67.86301 L 10 62.38356 L 12.605863 56.0274 L 17.166124 53.72603 L 22.37785 54.82192 L 24.85342 58.32877 L 27.980456 62.38356 L 34.104235 62.71233 L 39.055375 58.657534 Z"></path>
    <path d="M 43.87622 44.08219 L 37.62215 46.931507 L 26.677524 44.739726 L 18.859935 39.369863 L 16.514658 33.452055 L 16.514658 26.657534 L 17.557003 21.178082 L 22.638436 17.123288 L 27.459283 16.79452 L 30.9772 18.657534 L 32.540717 25.0137 L 30.325733 32.575342 L 28.762215 36.30137 L 31.628664 40.90411 L 36.579805 42.9863 Z"></path>
  </symbol>

  <symbol id="ring-die" width="10" height="10" viewBox="0 0 100 100" stroke="black" fill="white">
    <rect x="10" y="10" width="80" height="80"></rect>
  </symbol>
  <symbol id="skill-die" width="10" height="10" viewBox="0 0 100 100" stroke="black" fill="white">
    <path d="M 51 99 L 99 63 L 81 7 L 21 7 L 1 63 Z" transform="rotate(20 50 50) translate(2 1)"></path>
  </symbol>

  <symbol id="face--"></symbol>
  <symbol id="face-O">
    <use xlink:href="#opportunity" x="10" y="10" width="80" height="80"></use>
  </symbol>
  <symbol id="face-OX">
    <use xlink:href="#opportunity" x="14" y="14" width="46" height="46"></use>
    <use xlink:href="#strife" x="43" y="43" width="46" height="46"></use>
  </symbol>
  <symbol id="face-R">
    <use xlink:href="#explode" x="10" y="10" width="80" height="80"></use>
  </symbol>
  <symbol id="face-RX">
    <use xlink:href="#explode" x="14" y="14" width="46" height="46"></use>
    <use xlink:href="#strife" x="43" y="43" width="46" height="46"></use>
  </symbol>
  <symbol id="face-S">
    <use xlink:href="#success" x="10" y="10" width="80" height="80"></use>
  </symbol>
  <symbol id="face-SO">
    <use xlink:href="#success" x="14" y="14" width="46" height="46"></use>
    <use xlink:href="#opportunity" x="43" y="43" width="46" height="46"></use>
  </symbol>
  <symbol id="face-SX">
    <use xlink:href="#success" x="14" y="14" width="46" height="46"></use>
    <use xlink:href="#strife" x="43" y="43" width="46" height="46"></use>
  </symbol>
	
	<use xlink:href="#skill-die" x="0" y="0" width="100" height="100"></use>
	<use xlink:href="#face-R" x="0" y="0" width="100" height="100"></use>
</svg>